<svg width="263" height="25" viewBox="0 0 263 25" fill="none" xmlns="http://www.w3.org/2000/svg">
<path d="M3.39173 1.18265L10.0911 1.2779C13.5624 1.2779 16.1025 1.1509 17.7112 0.896897C17.944 1.3414 18.0604 1.84941 18.0604 2.42092C18.0604 2.99242 17.8064 3.51101 17.2984 3.97669C16.7904 4.42119 16.1766 4.64344 15.4569 4.64344L11.8056 4.23069C11.8056 4.37886 11.7527 5.03503 11.6468 6.19921C11.3505 9.05675 11.2023 11.9249 11.2023 14.8036C11.2023 17.6823 11.4246 20.561 11.8691 23.4397C11.1706 23.6937 10.4403 23.8207 9.67831 23.8207C8.9163 23.8207 8.26013 23.609 7.70979 23.1857C7.15945 22.7412 6.88428 22.085 6.88428 21.2171C6.88428 20.3281 6.99011 18.7724 7.20178 16.5498C7.41345 14.3273 7.51929 12.1683 7.51929 10.0728C7.51929 7.95607 7.41345 5.98754 7.20178 4.16719C4.64058 4.29419 2.64031 4.65403 1.20096 5.2467C0.946955 4.75986 0.819953 4.22011 0.819953 3.62743C0.819953 3.01359 1.06337 2.45267 1.55021 1.94466C2.03705 1.43665 2.65089 1.18265 3.39173 1.18265ZM34.4042 19.4391C34.6582 20.0106 34.7852 20.6562 34.7852 21.3759C34.7852 22.0956 34.5312 22.72 34.0232 23.2492C33.5363 23.7572 32.9331 24.0112 32.2134 24.0112C29.9697 24.0112 26.456 23.8842 21.6723 23.6302C21.2913 23.609 20.9526 23.4926 20.6563 23.2809C20.3599 23.0481 20.2118 22.7623 20.2118 22.4237C20.2118 21.3018 20.2964 19.4074 20.4658 16.7403C20.6563 14.0733 20.7515 11.5862 20.7515 9.279C20.7515 6.95064 20.5293 4.28361 20.0847 1.2779C21.6511 1.4049 23.7572 1.4684 26.4031 1.4684C29.0489 1.4684 31.5784 1.2779 33.9914 0.896897C34.2454 1.36257 34.3724 1.92349 34.3724 2.57967C34.3724 3.21468 34.1184 3.78618 33.6104 4.29419C33.1236 4.78103 32.5097 5.02445 31.7689 5.02445C31.0492 5.02445 29.885 4.91861 28.2763 4.70694C26.6888 4.49527 25.5141 4.38944 24.7521 4.38944C24.5827 6.5273 24.4875 8.53816 24.4663 10.422C25.7998 10.549 27.2286 10.6125 28.7526 10.6125C30.2978 10.6125 31.6207 10.3903 32.7214 9.94576C32.9754 10.4114 33.1024 10.9724 33.1024 11.6285C33.1024 12.2635 32.8484 12.8456 32.3404 13.3748C31.8536 13.8828 31.2609 14.1368 30.5624 14.1368C29.885 14.1368 28.869 14.0098 27.5143 13.7558C26.1597 13.4806 25.1331 13.3431 24.4346 13.3431C24.4346 16.6874 24.5086 19.1428 24.6568 20.7091C25.6728 20.7938 26.4666 20.8361 27.0381 20.8361C29.8321 20.8361 32.2875 20.3705 34.4042 19.4391ZM47.2864 0.896897C49.1279 0.896897 50.7366 1.43665 52.1125 2.51617C53.4883 3.59568 54.1762 4.9927 54.1762 6.70722C54.1762 7.6174 53.9222 8.36882 53.4142 8.9615C52.9062 9.55417 52.2818 9.85051 51.5409 9.85051C50.8001 9.85051 50.2074 9.75526 49.7629 9.56475C49.8264 9.22608 49.8582 8.86625 49.8582 8.48524C49.837 7.15173 49.5089 6.07221 48.8739 5.2467C48.2389 4.40002 47.3076 3.97669 46.0799 3.97669C44.8734 3.97669 43.7515 4.36827 42.7143 5.15145C42.1005 6.04046 41.6242 7.20464 41.2856 8.64399C40.9469 10.0833 40.7776 11.5015 40.7776 12.8985C40.7776 15.2269 41.2221 17.1848 42.1111 18.7724C43.0213 20.3387 44.4289 21.1219 46.3339 21.1219C48.0907 21.1219 49.2761 20.4551 49.8899 19.1216C50.4614 17.9574 50.7472 16.4123 50.7472 14.4861C51.8267 14.4861 52.7263 14.6872 53.446 15.0893C54.1656 15.4703 54.5255 16.1053 54.5255 16.9943C54.5255 19.0687 53.6153 20.7938 51.795 22.1697C49.9746 23.5243 47.9214 24.2017 45.6354 24.2017C42.6508 24.2017 40.386 23.2174 38.8408 21.2489C37.2956 19.2592 36.523 16.571 36.523 13.1843C36.523 9.79759 37.4861 6.9083 39.4123 4.51644C41.3597 2.10341 43.9844 0.896897 47.2864 0.896897ZM62.0918 23.4397C61.4144 23.6937 60.6947 23.8207 59.9327 23.8207C59.1707 23.8207 58.504 23.5773 57.9324 23.0904C57.3821 22.6036 57.1069 21.9368 57.1069 21.0901C57.1069 20.2435 57.2128 18.6242 57.4244 16.2323C57.6361 13.8193 57.7419 11.8931 57.7419 10.4538C57.7419 6.74955 57.5197 3.81793 57.0752 1.65891C57.7525 1.4049 58.4722 1.2779 59.2342 1.2779C59.9962 1.2779 60.6524 1.52132 61.2027 2.00816C61.7742 2.495 62.06 3.09826 62.06 3.81793C62.06 4.51644 62.0282 5.19378 61.9647 5.84996C61.9224 6.50613 61.8589 7.25756 61.7742 8.10424C61.6896 8.95091 61.6261 9.69176 61.5837 10.3268C62.4304 10.4114 63.8909 10.4538 65.9653 10.4538C68.0397 10.4538 69.6378 10.3691 70.7596 10.1998C70.7596 6.83422 70.5374 3.92377 70.0928 1.4684C70.7702 1.2144 71.4899 1.0874 72.2519 1.0874C73.0139 1.0874 73.6701 1.33082 74.2204 1.81766C74.7919 2.3045 75.0777 2.98184 75.0777 3.84968C75.0777 4.69636 74.9718 6.2098 74.7602 8.38999C74.5485 10.5702 74.4427 12.3165 74.4427 13.6288C74.4427 17.7775 74.6649 21.1113 75.1094 23.6302C74.4321 23.8842 73.7124 24.0112 72.9504 24.0112C72.1884 24.0112 71.5216 23.7678 70.9501 23.2809C70.3998 22.7941 70.1246 22.1485 70.1246 21.3441C70.1246 20.5398 70.2093 19.2275 70.3786 17.4071C70.5479 15.5867 70.6538 14.3379 70.6961 13.6606C68.6217 13.5124 65.5314 13.4383 61.425 13.4383V14.2638C61.425 18.0104 61.6472 21.069 62.0918 23.4397Z" fill="#1502EF"/>
<path d="M79.7601 1.18265L86.4594 1.2779C89.9308 1.2779 92.4708 1.1509 94.0795 0.896897C94.3124 1.3414 94.4288 1.84941 94.4288 2.42092C94.4288 2.99242 94.1748 3.51101 93.6668 3.97669C93.1588 4.42119 92.5449 4.64344 91.8252 4.64344L88.174 4.23069C88.174 4.37886 88.121 5.03503 88.0152 6.19921C87.7189 9.05675 87.5707 11.9249 87.5707 14.8036C87.5707 17.6823 87.7929 20.561 88.2375 23.4397C87.5389 23.6937 86.8087 23.8207 86.0467 23.8207C85.2847 23.8207 84.6285 23.609 84.0782 23.1857C83.5278 22.7412 83.2526 22.085 83.2526 21.2171C83.2526 20.3281 83.3585 18.7724 83.5701 16.5498C83.7818 14.3273 83.8876 12.1683 83.8876 10.0728C83.8876 7.95607 83.7818 5.98754 83.5701 4.16719C81.0089 4.29419 79.0087 4.65403 77.5693 5.2467C77.3153 4.75986 77.1883 4.22011 77.1883 3.62743C77.1883 3.01359 77.4317 2.45267 77.9186 1.94466C78.4054 1.43665 79.0193 1.18265 79.7601 1.18265ZM106.518 13.0255C107.47 15.0364 108.677 16.7933 110.138 18.2961C111.598 19.799 113.048 20.7726 114.487 21.2171C114.487 22.1062 114.254 22.7941 113.789 23.2809C113.323 23.7678 112.656 24.0112 111.789 24.0112C110.667 24.0112 109.386 23.2915 107.947 21.8522C106.507 20.3916 105.248 18.6771 104.168 16.7086C103.11 14.7189 102.486 12.9726 102.295 11.4698C103.819 11.4698 105.068 11.0676 106.042 10.2633C107.037 9.43775 107.534 8.27357 107.534 6.77072C107.534 4.8657 106.349 3.91318 103.978 3.91318C103.216 3.91318 102.285 4.04019 101.184 4.29419C101.036 7.15172 100.962 9.45892 100.962 11.2158C100.962 16.8462 101.184 20.9208 101.628 23.4397C100.951 23.6937 100.231 23.8207 99.4694 23.8207C98.7074 23.8207 98.0406 23.5773 97.4691 23.0904C96.9188 22.6036 96.6436 21.958 96.6436 21.1536C96.6436 20.3493 96.7494 18.9523 96.9611 16.9626C97.1728 14.9517 97.2786 13.3431 97.2786 12.1365C97.2786 8.43232 97.014 5.14087 96.4849 2.26217C99.3424 1.47899 102.062 1.0874 104.645 1.0874C109.365 1.0874 111.725 2.77017 111.725 6.13571C111.725 7.6174 111.217 9.01441 110.201 10.3268C109.206 11.6179 107.979 12.5175 106.518 13.0255ZM131.623 12.2635C131.623 9.74467 131.104 7.71265 130.067 6.16746C129.051 4.60111 127.453 3.81793 125.273 3.81793C123.96 3.81793 122.796 4.24127 121.78 5.08795C121.209 5.97696 120.754 7.17289 120.415 8.67574C120.097 10.1786 119.939 11.6074 119.939 12.962C119.939 15.4597 120.447 17.46 121.463 18.9629C122.479 20.4657 124.087 21.2171 126.289 21.2171C127.495 21.2171 128.522 20.7303 129.369 19.7566C130.871 17.9998 131.623 15.5021 131.623 12.2635ZM125.209 24.2017C122.119 24.2017 119.769 23.1857 118.161 21.1536C116.552 19.1005 115.748 16.4228 115.748 13.1208C115.748 9.79759 116.743 6.92947 118.732 4.51644C120.722 2.10341 123.251 0.896897 126.321 0.896897C129.411 0.896897 131.76 1.93408 133.369 4.00844C134.999 6.0828 135.814 8.78158 135.814 12.1048C135.814 15.428 134.819 18.2749 132.829 20.6456C130.84 23.0163 128.3 24.2017 125.209 24.2017ZM149.352 23.5667C148.463 23.863 147.658 24.0112 146.939 24.0112C145.859 24.0112 145.013 23.6196 144.399 22.8364C143.806 22.0321 143.319 20.8996 142.938 19.4391C142.853 19.1216 142.557 17.9574 142.049 15.9466C141.054 12.0095 140.25 9.16258 139.636 7.40573C139.022 5.62771 138.123 4.28361 136.937 3.37343C137.191 2.73842 137.604 2.23041 138.176 1.84941C138.768 1.4684 139.456 1.2779 140.239 1.2779C141.023 1.2779 141.668 1.58482 142.176 2.19866C142.684 2.79134 143.086 3.5216 143.383 4.38944C143.7 5.25728 143.975 6.09338 144.208 6.89772C144.441 7.70206 144.684 8.69691 144.938 9.88226C145.214 11.0676 145.425 12.0307 145.573 12.7715C145.743 13.4912 145.997 14.7401 146.335 16.5181C146.695 18.2749 146.96 19.5555 147.129 20.3599C150.685 11.0888 152.463 4.89745 152.463 1.78591C152.463 1.51074 152.453 1.30965 152.432 1.18265C152.749 1.11915 153.077 1.0874 153.416 1.0874C154.262 1.0874 154.95 1.29907 155.48 1.72241C156.03 2.12458 156.305 2.70667 156.305 3.46868C156.305 4.52703 155.257 7.65973 153.162 12.8668C151.087 18.0527 149.817 21.6193 149.352 23.5667ZM172.692 19.4391C172.946 20.0106 173.073 20.6562 173.073 21.3759C173.073 22.0956 172.819 22.72 172.311 23.2492C171.824 23.7572 171.221 24.0112 170.501 24.0112C168.258 24.0112 164.744 23.8842 159.96 23.6302C159.579 23.609 159.24 23.4926 158.944 23.2809C158.648 23.0481 158.5 22.7623 158.5 22.4237C158.5 21.3018 158.584 19.4074 158.754 16.7403C158.944 14.0733 159.039 11.5862 159.039 9.279C159.039 6.95064 158.817 4.28361 158.373 1.2779C159.939 1.4049 162.045 1.4684 164.691 1.4684C167.337 1.4684 169.866 1.2779 172.279 0.896897C172.533 1.36257 172.66 1.92349 172.66 2.57967C172.66 3.21468 172.406 3.78618 171.898 4.29419C171.411 4.78103 170.798 5.02445 170.057 5.02445C169.337 5.02445 168.173 4.91861 166.564 4.70694C164.977 4.49527 163.802 4.38944 163.04 4.38944C162.871 6.5273 162.775 8.53816 162.754 10.422C164.088 10.549 165.516 10.6125 167.04 10.6125C168.586 10.6125 169.909 10.3903 171.009 9.94576C171.263 10.4114 171.39 10.9724 171.39 11.6285C171.39 12.2635 171.136 12.8456 170.628 13.3748C170.141 13.8828 169.549 14.1368 168.85 14.1368C168.173 14.1368 167.157 14.0098 165.802 13.7558C164.447 13.4806 163.421 13.3431 162.722 13.3431C162.722 16.6874 162.796 19.1428 162.945 20.7091C163.961 20.7938 164.754 20.8361 165.326 20.8361C168.12 20.8361 170.575 20.3705 172.692 19.4391ZM231.795 1.65891C232.473 1.4049 233.203 1.2779 233.986 1.2779C235.87 1.2779 236.812 2.13516 236.812 3.84968C236.812 4.78103 236.706 6.31563 236.494 8.45349C236.283 10.5702 236.177 12.7715 236.177 15.0576C236.177 17.3436 236.251 19.238 236.399 20.7409C236.971 20.8044 237.542 20.8361 238.114 20.8361C240.908 20.8361 243.363 20.3705 245.48 19.4391C245.734 20.0106 245.861 20.6562 245.861 21.3759C245.861 22.0956 245.607 22.72 245.099 23.2492C244.612 23.7572 244.009 24.0112 243.289 24.0112C241.786 24.0112 238.495 23.8842 233.415 23.6302C233.012 23.609 232.663 23.4926 232.367 23.2809C232.071 23.0481 231.922 22.7623 231.922 22.4237C231.922 21.3018 232.007 19.4074 232.176 16.7403C232.367 14.0733 232.462 11.6179 232.462 9.37425C232.462 7.10939 232.24 4.53761 231.795 1.65891ZM248.105 1.65891C248.782 1.4049 249.512 1.2779 250.295 1.2779C252.179 1.2779 253.121 2.13516 253.121 3.84968C253.121 4.78103 253.015 6.31563 252.804 8.45349C252.592 10.5702 252.486 12.7715 252.486 15.0576C252.486 17.3436 252.56 19.238 252.708 20.7409C253.28 20.8044 253.851 20.8361 254.423 20.8361C257.217 20.8361 259.672 20.3705 261.789 19.4391C262.043 20.0106 262.17 20.6562 262.17 21.3759C262.17 22.0956 261.916 22.72 261.408 23.2492C260.921 23.7572 260.318 24.0112 259.598 24.0112C258.095 24.0112 254.804 23.8842 249.724 23.6302C249.322 23.609 248.972 23.4926 248.676 23.2809C248.38 23.0481 248.232 22.7623 248.232 22.4237C248.232 21.3018 248.316 19.4074 248.486 16.7403C248.676 14.0733 248.771 11.6179 248.771 9.37425C248.771 7.10939 248.549 4.53761 248.105 1.65891Z" fill="black"/>
<path d="M207.711 3.05592L207.553 8.29474C207.553 11.1734 207.637 13.7558 207.807 16.0418C207.976 18.3067 208.357 20.7726 208.95 23.4397C208.484 23.8207 207.743 24.0112 206.727 24.0112C204.759 24.0112 203.774 23.1539 203.774 21.4394C203.774 20.0212 203.838 17.8516 203.965 14.9306C204.113 12.0095 204.187 9.72351 204.187 8.07249C203.044 9.72351 201.838 11.7661 200.568 14.2003C199.319 16.6133 198.694 18.095 198.694 18.6454C198.694 19.1957 198.747 19.619 198.853 19.9154C198.387 20.2117 197.763 20.3599 196.98 20.3599C196.218 20.3599 195.572 20.1482 195.043 19.7249C194.535 19.3015 194.101 18.7194 193.741 17.9786C193.403 17.2378 192.789 15.7878 191.9 13.6288C191.032 11.4486 190.238 9.57534 189.518 8.00899C188.968 11.4169 188.693 14.4331 188.693 17.0578C188.693 19.6825 188.778 21.8098 188.947 23.4397C188.27 23.6937 187.592 23.8207 186.915 23.8207C185.56 23.8207 184.883 23.1433 184.883 21.7887C184.883 20.7515 185.116 18.6877 185.581 15.5973C186.068 12.4858 186.312 9.86109 186.312 7.72323C186.312 5.58537 186.195 3.5851 185.962 1.72241C187.105 1.42607 187.994 1.2779 188.629 1.2779C189.794 1.2779 190.577 1.69066 190.979 2.51617C191.614 3.84968 192.545 5.97696 193.773 8.898C195.022 11.7979 196.038 14.031 196.821 15.5973C197.033 15.1528 197.52 14.2003 198.282 12.7398C199.065 11.2581 199.71 9.99868 200.218 8.9615C200.748 7.90315 201.277 6.6543 201.806 5.21495C202.356 3.75443 202.705 2.48442 202.854 1.4049C203.616 1.19324 204.356 1.0874 205.076 1.0874C205.817 1.0874 206.441 1.24615 206.949 1.56366C207.457 1.88116 207.711 2.37858 207.711 3.05592ZM217.468 1.53191C218.357 1.23557 219.162 1.0874 219.882 1.0874C220.982 1.0874 221.839 1.47899 222.453 2.26217C223.067 3.02417 223.543 4.11427 223.882 5.53245C223.988 5.95579 224.2 6.88714 224.517 8.32649C224.856 9.76584 225.131 10.93 225.343 11.819C225.999 14.5919 226.591 16.7403 227.121 18.2644C227.671 19.7884 228.539 21.0055 229.724 21.9157C229.47 22.5507 229.047 23.0587 228.454 23.4397C227.883 23.8207 227.258 24.0112 226.581 24.0112C225.036 24.0112 223.903 22.847 223.184 20.5186C222.845 19.4391 222.538 18.3808 222.263 17.3436C221.522 17.5976 220.601 17.7246 219.501 17.7246C218.421 17.7246 217.087 17.6082 215.5 17.3753C214.844 19.9365 214.516 21.8627 214.516 23.1539C214.516 23.4291 214.526 23.6302 214.547 23.7572C214.272 23.7995 213.807 23.8207 213.15 23.8207C212.494 23.8207 211.912 23.6196 211.404 23.2174C210.917 22.7941 210.674 22.2014 210.674 21.4394C210.674 20.3811 211.69 17.2801 213.722 12.1365C215.754 6.99297 217.003 3.4581 217.468 1.53191ZM216.23 14.7083C217.077 14.8142 217.934 14.8671 218.802 14.8671C219.691 14.8671 220.633 14.7718 221.628 14.5813C221.437 13.7135 220.792 10.3903 219.691 4.61169C218.379 8.01957 217.225 11.3851 216.23 14.7083Z" fill="#1502EF"/>
</svg>
