<svg width="297" height="155" viewBox="0 0 297 155" fill="none" xmlns="http://www.w3.org/2000/svg">
<path d="M99.3051 147.381L98.75 146.549L99.3051 147.381ZM152.144 73.7674L152.69 74.6052L152.144 73.7674ZM246.148 73.7674L245.544 72.9707L246.148 73.7674ZM291.861 0.49118C291.58 0.0157329 290.967 -0.141886 290.491 0.139127L282.743 4.71851C282.268 4.99952 282.11 5.61275 282.391 6.0882C282.672 6.56365 283.286 6.72127 283.761 6.44025L290.648 2.36969L294.719 9.25668C295 9.73212 295.613 9.88974 296.088 9.60873C296.564 9.32771 296.721 8.71448 296.44 8.23904L291.861 0.49118ZM1.56226 148.208C3.01833 147.218 4.4624 146.358 5.89528 145.615L4.97483 143.839C3.4689 144.62 1.95683 145.521 0.437744 146.554L1.56226 148.208ZM15.2913 142.276C18.6404 141.603 21.9585 141.458 25.2623 141.692L25.4041 139.697C21.9455 139.452 18.4454 139.602 14.8975 140.315L15.2913 142.276ZM35.2134 143.408C38.4593 144.248 41.6989 145.312 44.953 146.458L45.6174 144.572C42.3409 143.418 39.0403 142.332 35.7145 141.472L35.2134 143.408ZM54.64 149.947C57.9132 151.102 61.2118 152.192 64.5368 153.061L65.0425 151.126C61.796 150.277 58.5574 149.209 55.3055 148.061L54.64 149.947ZM74.8385 154.873C78.2963 155.136 81.797 155.008 85.3469 154.325L84.9689 152.361C81.6162 153.006 78.2957 153.13 74.9904 152.878L74.8385 154.873ZM95.2993 150.888C96.8129 150.12 98.3329 149.232 99.8602 148.213L98.75 146.549C97.2863 147.526 95.8349 148.374 94.3948 149.104L95.2993 150.888ZM99.8602 148.213C101.181 147.331 102.436 146.399 103.633 145.42L102.367 143.872C101.219 144.811 100.015 145.705 98.75 146.549L99.8602 148.213ZM110.301 138.867C112.326 136.502 114.154 133.99 115.839 131.377L114.159 130.293C112.513 132.844 110.739 135.281 108.782 137.566L110.301 138.867ZM120.49 123.357C121.922 120.644 123.275 117.873 124.597 115.093L122.791 114.234C121.473 117.004 120.135 119.746 118.721 122.423L120.49 123.357ZM128.516 106.783C129.836 104.012 131.178 101.272 132.595 98.5989L130.827 97.6621C129.391 100.371 128.036 103.141 126.711 105.923L128.516 106.783ZM137.176 90.7426C138.831 88.1972 140.616 85.7689 142.586 83.4981L141.075 82.1875C139.035 84.5394 137.195 87.0438 135.499 89.6524L137.176 90.7426ZM149.047 77.2451C150.203 76.3177 151.415 75.4361 152.69 74.6052L151.598 72.9297C150.267 73.7974 149.001 74.7177 147.796 75.6853L149.047 77.2451ZM152.69 74.6052C154.102 73.685 155.502 72.8919 156.893 72.2139L156.016 70.4163C154.549 71.1318 153.076 71.966 151.598 72.9297L152.69 74.6052ZM165.978 69.2724C169.191 68.7295 172.378 68.6852 175.553 68.9978L175.749 67.0074C172.425 66.6801 169.058 66.7237 165.645 67.3003L165.978 69.2724ZM185.064 70.8664C188.167 71.734 191.261 72.805 194.366 73.943L195.054 72.0652C191.932 70.9205 188.78 69.8287 185.602 68.9402L185.064 70.8664ZM203.634 77.385C206.782 78.5204 209.949 79.5784 213.134 80.4037L213.635 78.4677C210.537 77.6646 207.435 76.6298 204.312 75.5036L203.634 77.385ZM223.057 82.048C226.388 82.2368 229.751 82.011 233.148 81.2006L232.683 79.2552C229.499 80.015 226.333 80.2305 223.17 80.0512L223.057 82.048ZM242.53 77.3931C243.935 76.5736 245.342 75.6341 246.753 74.5642L245.544 72.9707C244.194 73.9942 242.854 74.8886 241.522 75.6656L242.53 77.3931ZM246.753 74.5642C248.237 73.4385 249.677 72.3057 251.074 71.1625L249.808 69.6145C248.431 70.7413 247.01 71.8589 245.544 72.9707L246.753 74.5642ZM259.293 63.832C261.961 61.2237 264.446 58.5342 266.77 55.7291L265.23 54.4531C262.953 57.202 260.515 59.8403 257.895 62.4021L259.293 63.832ZM273.327 46.8597C275.312 43.84 277.159 40.6778 278.889 37.3412L277.114 36.4206C275.414 39.6988 273.601 42.8014 271.656 45.7612L273.327 46.8597ZM283.513 27.3502C284.861 24.0827 286.134 20.6557 287.343 17.0472L285.447 16.4117C284.25 19.9813 282.994 23.3654 281.664 26.5871L283.513 27.3502ZM290.548 6.55478C291.031 4.82532 291.504 3.05731 291.969 1.24894L290.031 0.751061C289.57 2.54697 289.1 4.30176 288.622 6.01734L290.548 6.55478Z" fill="#002A4D"/>
</svg>
