<svg width="650" height="547" viewBox="0 0 650 547" fill="none" xmlns="http://www.w3.org/2000/svg">
<path d="M65.4788 169.965C78.1506 169.965 90.8158 170.535 103.505 171.079C96.1637 167.472 88.4922 164.617 84.3599 162.095C67.7576 151.963 51.7225 139.357 39.4395 123.207C28.3917 108.681 27.9906 96.8593 28.1316 78.3004C28.3005 56.0641 39.8317 35.6015 59.4618 28.3015C71.9874 23.6435 83.8957 16.8305 96.2903 11.8667C104.624 8.52934 112.418 3.30211 121.396 3.30211C146.41 3.30211 164.052 23.109 180.322 42.1901C215.106 82.9869 237.421 143.521 281.885 172.974C308.783 190.791 346.531 194.832 369.859 168.808C387.58 149.037 399.559 123.351 414.675 101.217C423.239 88.6773 431.526 73.7316 441.648 62.7915C463.351 39.3364 495.181 19.5162 522.982 7.46868C544.069 -1.66931 590.67 -8.75458 598.507 26.2183C602.205 42.7211 595.488 60.787 590.726 76.1014C583.219 100.241 568.951 118.638 558.255 140.799C544.169 169.983 526.28 200.053 517.795 232.001C511.385 256.138 535.542 259.619 551.408 264.639C580.222 273.755 606.554 287.409 628.696 310.24L628.935 310.487C635.573 317.329 649.075 331.248 649.859 342.183C652.019 372.307 628.859 400.92 613.964 423.547C604.204 438.375 590.939 449.5 578.588 461.625C570.637 469.431 561.563 473.978 550.785 474.125C523.869 474.491 505.606 464.693 486.05 445.885C461.099 421.888 435.797 395.392 408.451 375.053C391.129 362.17 347.625 338.622 328.777 360.701C319.369 371.722 313.686 385.402 305.123 397.159C290.379 417.405 274.257 436.687 258.854 456.301C235.173 486.457 210.06 527.674 175.238 542.41C165.193 546.661 153.828 549.448 143.908 543.915C124.066 532.846 125.234 507.822 125.234 486.624C125.234 441.59 147.699 402.756 166.109 364.174C173.133 349.453 199.259 308.567 184.16 291.721C178.518 285.427 167.197 287.184 159.469 285.703C140.307 282.032 121.085 277.825 101.789 275.171C85.6502 272.951 70.0279 268.479 54.0672 265.102C43.5864 262.884 32.7024 262.044 23.5669 255.38C17.8396 251.202 8.2965 245.553 4.78957 238.598C-6.07207 217.055 2.52575 192.984 20.6621 180.844C36.7442 170.079 46.5934 169.965 65.4788 169.965Z" fill="#2C0BF7" fill-opacity="0.2"/>
</svg>
